# xmcd
#
# Track frame offsets: 
#        150
#        12530
#        22792
#        32460
#        40687
#        50465
#        60235
#        69215
#        81232
#        93260
#        101837
#        112317
#        124375
#        133387
#        145000
#        154497
#        164427
#        174367
#        185162
#        195690
#        206757
#        218167
#        227830
#        237510
#        248230
#        257675
#        269882
#        280797
#        294167
#        304952
#        312737
#        324627
#        336172
#        348942
#
# Disc length: 4789 seconds
#
# Revision: 1
# Processed by: cddbd v1.5.2PL0 Copyright (c) Steve Scherf et al.
# Submitted via: ExactAudioCopy v0.95b4
#
DISCID=0b12b322
DTITLE=Curtis Gordon - Play The Music Louder
DYEAR=1998
DGENRE=Hillbilly
TTITLE0=Rompin' and Stompin'
TTITLE1=Play The Music Louder
TTITLE2=Caffeine And Nicotine
TTITLE3=Draggin'
TTITLE4=Baby, Please Come Home
TTITLE5=You Ain't Seen Nothin' Yet
TTITLE6=Mobile, Alabama
TTITLE7=So Tired Of Crying
TTITLE8=Too Young To Know
TTITLE9=I'm Sittin' On Top Of The World
TTITLE10=I'd Do It For You
TTITLE11=One Blue Moon, One Broken Heart
TTITLE12=Rock, Roll, Jump and Jive
TTITLE13=Out To Win Your Heart
TTITLE14=Don't Trade
TTITLE15=From Memphis To New Orleans
TTITLE16=Tell 'Em No
TTITLE17=Hey Mister Sorrow
TTITLE18=Cry, Cry
TTITLE19=Little Bo-Peep
TTITLE20=I'd Like To Tell You
TTITLE21=Sixteen
TTITLE22=If You Tell Me One More Lie
TTITLE23=Divided Heart
TTITLE24=Baby Me
TTITLE25=Please Baby Please
TTITLE26=Rocky Road Of Love
TTITLE27=I Just Don't Love You Anymore
TTITLE28=I Wouldn't
TTITLE29=Oh Lonely Heart
TTITLE30=The Greatest Sin
TTITLE31=What's A Little Pride
TTITLE32=You Crazy, Crazy Moon
TTITLE33=Where'd Ja Get So Much Of
EXTD=
EXTT0=
EXTT1=
EXTT2=
EXTT3=
EXTT4=
EXTT5=
EXTT6=
EXTT7=
EXTT8=
EXTT9=
EXTT10=
EXTT11=
EXTT12=
EXTT13=
EXTT14=
EXTT15=
EXTT16=
EXTT17=
EXTT18=
EXTT19=
EXTT20=
EXTT21=
EXTT22=
EXTT23=
EXTT24=
EXTT25=
EXTT26=
EXTT27=
EXTT28=
EXTT29=
EXTT30=
EXTT31=
EXTT32=
EXTT33=
PLAYORDER=
